<svg xmlns="http://www.w3.org/2000/svg" viewBox="0 0 64 64">
  <path fill="#363636" transform="translate(5.3, 6.7)" d="M48.2,26.6h-16c-0.8,0-1.2-0.5-1.4-0.9s-0.2-1.1,0.3-1.7l7.2-7.2c0.9-0.9,0.9-2.3,0-3.2c-0.9-0.9-2.3-0.9-3.2,0l-7.2,7.2c-0.5,0.5-1.2,0.5-1.7,0.3c-0.5-0.2-0.9-0.7-0.9-1.4V3.8c0-1.3-1-2.3-2.3-2.3c-1.3,0-2.3,1-2.3,2.3v15.9c0,0.8-0.5,1.2-0.9,1.4c-0.5,0.2-1.1,0.2-1.7-0.3l-7.2-7.2c-0.9-0.9-2.3-0.9-3.2,0C7.3,14,7,14.6,7,15.2s0.2,1.2,0.7,1.6l7.2,7.2c0.5,0.5,0.5,1.2,0.3,1.7s-0.7,0.9-1.4,0.9H9c-1.3,0-2.3,1-2.3,2.3c0,1.3,1,2.3,2.3,2.3h4.8c0.8,0,1.2,0.5,1.4,0.9s0.2,1.1-0.3,1.7L3.6,45C3.2,45.5,3,46,3,46.6c0,0.6,0.2,1.2,0.7,1.6c0.9,0.9,2.4,0.9,3.2,0L18.1,37c0.5-0.5,1.2-0.5,1.7-0.3c0.5,0.2,0.9,0.7,0.9,1.4v8.5c0,1.3,1,2.3,2.3,2.3c1.3,0,2.3-1,2.3-2.3v-8.5c0-0.8,0.5-1.2,0.9-1.4c0.5-0.2,1.1-0.2,1.7,0.3l11.4,11.4c0.4,0.4,1,0.7,1.6,0.7c0.6,0,1.2-0.2,1.6-0.7c0.4-0.4,0.7-1,0.7-1.6s-0.2-1.2-0.7-1.6L31.1,33.8c-0.5-0.5-0.5-1.2-0.3-1.7s0.7-0.9,1.4-0.9h16c1.3,0,2.3-1,2.3-2.3C50.5,27.6,49.4,26.6,48.2,26.6z"/>
</svg>
